<svg width="1919" height="847" viewBox="0 0 1919 847" fill="none" xmlns="http://www.w3.org/2000/svg">
<mask id="mask0_2020_57" style="mask-type:alpha" maskUnits="userSpaceOnUse" x="0" y="0" width="1920" height="847">
<path d="M0 0.5H1920V846.5H0V0.5Z" fill="#040507"/>
<path d="M0 0.5V1H1920V0.5V0H0V0.5ZM1920 846.5V846H0V846.5V847H1920V846.5Z" fill="url(#paint0_linear_2020_57)"/>
</mask>
<g mask="url(#mask0_2020_57)">
<path d="M-89.1174 965.068C24.6207 1081.26 211.015 1083.25 327.205 969.509C443.396 855.771 445.384 669.377 331.646 553.186C217.908 436.996 31.5141 435.008 -84.6766 548.746L-88.5781 544.76C29.8138 428.867 219.739 430.893 335.632 549.285C451.524 667.677 449.499 857.602 331.107 973.495C212.715 1089.39 22.7898 1087.36 -93.103 968.97C-208.996 850.578 -206.97 660.653 -88.5781 544.76L-84.6766 548.746C-200.867 662.484 -202.855 848.878 -89.1174 965.068Z" fill="url(#paint1_linear_2020_57)"/>
<path d="M-68.7096 944.495C33.9988 1049.42 202.317 1051.21 307.241 948.505C412.164 845.797 413.959 677.478 311.251 572.555C208.542 467.632 40.2237 465.837 -64.6994 568.545L-68.6009 564.559L-67.3427 563.335C39.4444 460.118 209.443 461.931 314.005 567.402L315.236 568.653C420.1 675.777 418.267 847.628 311.142 952.491L309.884 953.715C202.676 1057.34 31.7583 1055.1 -72.6952 948.396L-73.9192 947.138C-177.542 839.93 -175.307 669.013 -68.6009 564.559L-64.6994 568.545C-169.622 671.253 -171.418 839.572 -68.7096 944.495Z" fill="url(#paint2_linear_2020_57)"/>
<path d="M-63.5393 940.03C32.0905 1037.72 188.809 1039.39 286.501 943.764C384.192 848.134 385.864 691.416 290.234 593.724C194.605 496.032 37.8864 494.36 -59.8055 589.99L-63.707 586.004L-62.5339 584.863C37.4368 488.235 196.817 490.32 294.22 589.823C392.004 689.716 390.295 849.965 290.402 947.749C190.509 1045.53 30.2596 1043.82 -67.5249 943.932L-68.6662 942.758C-165.295 842.787 -163.21 683.407 -63.707 586.004L-59.8055 589.99C-157.497 685.62 -159.169 842.338 -63.5393 940.03Z" fill="url(#paint3_linear_2020_57)"/>
<path d="M-60.8057 937.951C27.4161 1028.07 171.994 1029.62 262.119 941.395C352.243 853.173 353.785 708.595 265.563 618.471C177.341 528.346 32.763 526.804 -57.3612 615.026L-61.2627 611.041L-60.1779 609.985C31.857 521.028 178.371 522.591 268.487 613.492L269.549 614.569C359.925 706.895 358.346 855.004 266.02 945.381L264.936 946.435C172.539 1035.74 25.2323 1033.82 -64.7913 941.852L-65.8461 940.768C-155.154 848.371 -153.227 701.064 -61.2627 611.041L-57.3612 615.026C-147.485 703.248 -149.028 847.826 -60.8057 937.951Z" fill="url(#paint4_linear_2020_57)"/>
<path d="M-50.8667 938.358C29.2888 1020.24 160.648 1021.64 242.532 941.487C324.416 861.332 325.817 729.973 245.661 648.089C165.506 566.205 34.1468 564.804 -47.7371 644.959L-51.6386 640.974L-50.6506 640.013C33.1697 558.995 166.606 560.419 248.68 643.206L249.647 644.187C331.957 728.272 330.518 863.163 246.433 945.473L245.445 946.434C161.295 1027.77 27.1363 1026.02 -54.8523 942.259L-55.8129 941.271C-137.15 857.121 -135.395 722.962 -51.6386 640.974L-47.7371 644.959C-129.621 725.115 -131.022 856.474 -50.8667 938.358Z" fill="url(#paint5_linear_2020_57)"/>
<path d="M-50.5682 938.662C23.1671 1013.99 144.005 1015.28 219.33 941.541C294.655 867.806 295.944 746.968 222.209 671.643C148.473 596.318 27.636 595.029 -47.6893 668.764L-51.5908 664.779C25.9357 588.889 150.304 590.215 226.194 667.742C302.084 745.268 300.758 869.637 223.231 945.527C145.705 1021.42 21.3362 1020.09 -54.5538 942.564C-130.444 865.037 -129.117 740.669 -51.5908 664.779L-47.6893 668.764C-123.015 742.5 -124.304 863.337 -50.5682 938.662Z" fill="url(#paint6_linear_2020_57)"/>
<path d="M2029.93 -297.715C1862.04 -387.972 1652.77 -325.036 1562.51 -157.144C1472.25 10.7481 1535.19 220.019 1703.08 310.276C1870.97 400.533 2080.24 337.597 2170.5 169.705L2176.26 172.801C2084.29 343.874 1871.06 408.002 1699.98 316.035C1528.91 224.068 1464.78 10.8328 1556.75 -160.24C1648.72 -331.313 1861.95 -395.441 2033.02 -303.474C2204.1 -211.508 2268.23 1.72808 2176.26 172.801L2170.5 169.705C2260.76 1.81268 2197.82 -207.458 2029.93 -297.715Z" fill="url(#paint7_linear_2020_57)"/>
<path d="M2014.28 -267.559C1862.67 -349.064 1673.7 -292.231 1592.19 -140.62C1510.69 10.9907 1567.52 199.968 1719.13 281.473C1870.74 362.977 2059.72 306.144 2141.22 154.533L2146.98 157.629L2146 159.438C2062.59 312.27 1871.73 369.67 1717.85 288.201L1716.04 287.232C1561.24 204.018 1503.22 11.0753 1586.43 -143.716L1587.41 -145.526C1671.15 -298.959 1863.19 -356.207 2017.38 -273.318L2019.19 -272.338C2172.62 -188.597 2229.87 3.4418 2146.98 157.629L2141.22 154.533C2222.73 2.9218 2165.9 -186.055 2014.28 -267.559Z" fill="url(#paint8_linear_2020_57)"/>
<path d="M2010.06 -260.756C1868.9 -336.643 1692.94 -283.727 1617.06 -142.565C1541.17 -1.40298 1594.09 174.55 1735.25 250.437C1876.41 326.324 2052.36 273.408 2128.25 132.246L2134.01 135.342L2133.1 137.029C2055.01 280.105 1875.93 333.49 1732.15 256.196C1587.81 178.599 1533.7 -1.31834 1611.3 -145.661C1688.9 -290.003 1868.81 -344.112 2013.16 -266.515L2014.84 -265.601C2157.92 -187.513 2211.3 -8.43634 2134.01 135.342L2128.25 132.246C2204.14 -8.91551 2151.22 -184.869 2010.06 -260.756Z" fill="url(#paint9_linear_2020_57)"/>
<path d="M2007.73 -257.473C1877.5 -327.481 1715.18 -278.664 1645.17 -148.438C1575.16 -18.2105 1623.98 144.113 1754.2 214.121C1884.43 284.129 2046.75 235.313 2116.76 105.086L2122.52 108.182L2121.68 109.742C2049.79 241.46 1885.29 290.93 1752.67 220.715L1751.11 219.88C1617.7 148.162 1567.69 -18.1259 1639.41 -151.534L1640.25 -153.093C1712.43 -285.33 1877.94 -334.67 2010.82 -263.232L2012.38 -262.387C2144.62 -190.215 2193.96 -24.7048 2122.52 108.182L2116.76 105.086C2186.77 -25.1412 2137.95 -187.464 2007.73 -257.473Z" fill="url(#paint10_linear_2020_57)"/>
<path d="M1996.46 -254.454C1878.14 -318.061 1730.66 -273.708 1667.05 -155.388C1603.45 -37.0683 1647.8 110.413 1766.12 174.021C1884.44 237.628 2031.92 193.275 2095.53 74.9547L2101.29 78.0507L2100.52 79.471C2035.05 199.433 1885.23 244.488 1764.45 180.54L1763.02 179.78C1641.52 114.462 1595.98 -36.9836 1661.3 -158.484L1662.07 -159.904C1727.8 -280.339 1878.53 -325.275 1999.56 -260.213L2000.98 -259.443C2121.41 -193.713 2166.35 -42.9751 2101.29 78.0507L2095.53 74.9547C2159.14 -43.3651 2114.78 -190.847 1996.46 -254.454Z" fill="url(#paint11_linear_2020_57)"/>
<path d="M1996.02 -254.69C1887.18 -313.203 1751.51 -272.402 1693 -163.559C1634.49 -54.7165 1675.29 80.9519 1784.13 139.465C1892.97 197.977 2028.64 157.176 2087.15 48.3336L2092.91 51.4297C2032.69 163.453 1893.06 205.446 1781.03 145.224C1669.01 85.0011 1627.02 -54.6318 1687.24 -166.655C1747.46 -278.679 1887.1 -320.672 1999.12 -260.449C2111.14 -200.227 2153.14 -60.5939 2092.91 51.4297L2087.15 48.3336C2145.67 -60.5093 2104.87 -196.178 1996.02 -254.69Z" fill="url(#paint12_linear_2020_57)"/>
</g>
<defs>
<linearGradient id="paint0_linear_2020_57" x1="0" y1="423.5" x2="1920" y2="423.5" gradientUnits="userSpaceOnUse">
<stop stop-color="#FF0000"/>
<stop offset="0.375" stop-color="#3776FF"/>
<stop offset="0.711538" stop-color="#FFEA00"/>
<stop offset="1" stop-color="white"/>
</linearGradient>
<linearGradient id="paint1_linear_2020_57" x1="-80.2804" y1="982.069" x2="322.809" y2="536.186" gradientUnits="userSpaceOnUse">
<stop stop-color="#FF0000"/>
<stop offset="0.341346" stop-color="#0051FF"/>
<stop offset="0.711538" stop-color="#FFEA00"/>
<stop offset="1" stop-color="white"/>
</linearGradient>
<linearGradient id="paint2_linear_2020_57" x1="-61.0927" y1="960.249" x2="303.635" y2="556.801" gradientUnits="userSpaceOnUse">
<stop stop-color="#FF0000"/>
<stop offset="0.341346" stop-color="#0051FF"/>
<stop offset="0.711538" stop-color="#FFEA00"/>
<stop offset="1" stop-color="white"/>
</linearGradient>
<linearGradient id="paint3_linear_2020_57" x1="-56.7061" y1="954.984" x2="283.401" y2="578.77" gradientUnits="userSpaceOnUse">
<stop stop-color="#FF0000"/>
<stop offset="0.341346" stop-color="#0051FF"/>
<stop offset="0.711538" stop-color="#FFEA00"/>
<stop offset="1" stop-color="white"/>
</linearGradient>
<linearGradient id="paint4_linear_2020_57" x1="-54.7919" y1="952.067" x2="259.549" y2="604.354" gradientUnits="userSpaceOnUse">
<stop stop-color="#FF0000"/>
<stop offset="0.341346" stop-color="#0051FF"/>
<stop offset="0.711538" stop-color="#FFEA00"/>
<stop offset="1" stop-color="white"/>
</linearGradient>
<linearGradient id="paint5_linear_2020_57" x1="-45.7454" y1="951.563" x2="240.54" y2="634.884" gradientUnits="userSpaceOnUse">
<stop stop-color="#FF0000"/>
<stop offset="0.341346" stop-color="#0051FF"/>
<stop offset="0.711538" stop-color="#FFEA00"/>
<stop offset="1" stop-color="white"/>
</linearGradient>
<linearGradient id="paint6_linear_2020_57" x1="-46.1572" y1="951.141" x2="217.798" y2="659.164" gradientUnits="userSpaceOnUse">
<stop stop-color="#FF0000"/>
<stop offset="0.341346" stop-color="#0051FF"/>
<stop offset="0.711538" stop-color="#FFEA00"/>
<stop offset="1" stop-color="white"/>
</linearGradient>
<linearGradient id="paint7_linear_2020_57" x1="1699.98" y1="316.035" x2="2033.02" y2="-303.474" gradientUnits="userSpaceOnUse">
<stop stop-color="#FF0000"/>
<stop offset="0.375" stop-color="#3776FF"/>
<stop offset="0.711538" stop-color="#FFEA00"/>
<stop offset="1" stop-color="white"/>
</linearGradient>
<linearGradient id="paint8_linear_2020_57" x1="1716.03" y1="287.232" x2="2017.38" y2="-273.319" gradientUnits="userSpaceOnUse">
<stop stop-color="#FF0000"/>
<stop offset="0.375" stop-color="#3776FF"/>
<stop offset="0.711538" stop-color="#FFEA00"/>
<stop offset="1" stop-color="white"/>
</linearGradient>
<linearGradient id="paint9_linear_2020_57" x1="1732.15" y1="256.196" x2="2013.16" y2="-266.515" gradientUnits="userSpaceOnUse">
<stop stop-color="#FF0000"/>
<stop offset="0.375" stop-color="#3776FF"/>
<stop offset="0.711538" stop-color="#FFEA00"/>
<stop offset="1" stop-color="white"/>
</linearGradient>
<linearGradient id="paint10_linear_2020_57" x1="1751.11" y1="219.88" x2="2010.82" y2="-263.232" gradientUnits="userSpaceOnUse">
<stop stop-color="#FF0000"/>
<stop offset="0.375" stop-color="#3776FF"/>
<stop offset="0.711538" stop-color="#FFEA00"/>
<stop offset="1" stop-color="white"/>
</linearGradient>
<linearGradient id="paint11_linear_2020_57" x1="1763.02" y1="179.78" x2="1999.56" y2="-260.213" gradientUnits="userSpaceOnUse">
<stop stop-color="#FF0000"/>
<stop offset="0.375" stop-color="#3776FF"/>
<stop offset="0.711538" stop-color="#FFEA00"/>
<stop offset="1" stop-color="white"/>
</linearGradient>
<linearGradient id="paint12_linear_2020_57" x1="1781.03" y1="145.224" x2="1999.12" y2="-260.449" gradientUnits="userSpaceOnUse">
<stop stop-color="#FF0000"/>
<stop offset="0.375" stop-color="#3776FF"/>
<stop offset="0.711538" stop-color="#FFEA00"/>
<stop offset="1" stop-color="white"/>
</linearGradient>
</defs>
</svg>
