<svg width="1920" height="846" viewBox="0 0 1920 846" fill="none" xmlns="http://www.w3.org/2000/svg">
<path d="M0 0H1920V846H0V0Z" fill="#040507"/>
<path d="M345.407 514.555C339.586 488.007 337.374 466.349 338.771 449.582C340.168 432.815 345.64 418.493 355.186 406.616C364.965 394.507 379.517 382.397 398.842 370.288C424.22 354.219 441.1 340.363 449.482 328.719C457.864 316.842 462.055 304.034 462.055 290.295C462.055 267.007 454.023 249.658 437.957 238.247C421.892 226.836 399.424 221.13 370.553 221.13C350.762 221.13 332.951 223.925 317.118 229.514C301.286 235.103 287.199 242.671 274.859 252.219L256 198.425C264.382 191.205 274.859 184.685 287.432 178.863C300.005 173.041 314.208 168.5 330.04 165.24C345.873 161.747 362.869 160 381.03 160C410.6 160 436.793 164.774 459.611 174.322C482.661 183.87 500.822 197.61 514.093 215.541C527.364 233.473 534 254.897 534 279.815C534 293.788 531.555 307.178 526.666 319.986C521.776 332.562 513.278 345.253 501.171 358.062C489.064 370.637 472.3 383.911 450.879 397.884C435.513 407.897 424.104 417.562 416.653 426.877C409.203 436.192 404.895 447.603 403.731 461.11C402.8 474.616 404.197 492.432 407.922 514.555H345.407ZM380.681 670C367.177 670 355.535 665.692 345.756 657.075C336.21 648.459 331.437 637.164 331.437 623.192C331.437 613.877 333.533 605.726 337.724 598.74C342.147 591.753 348.085 586.281 355.535 582.322C363.219 578.363 371.601 576.384 380.681 576.384C394.418 576.384 406.059 580.692 415.606 589.308C425.152 597.925 429.925 609.219 429.925 623.192C429.925 632.507 427.713 640.658 423.289 647.644C418.865 654.63 412.928 660.103 405.477 664.062C398.027 668.021 389.761 670 380.681 670Z" fill="url(#paint0_linear_2046_226)" fill-opacity="0.05"/>
<defs>
<linearGradient id="paint0_linear_2046_226" x1="278.894" y1="160" x2="511.182" y2="669.965" gradientUnits="userSpaceOnUse">
<stop stop-color="#FF0000"/>
<stop offset="0.375" stop-color="#3776FF"/>
<stop offset="0.711538" stop-color="#FFEA00"/>
<stop offset="1" stop-color="white"/>
</linearGradient>
</defs>
</svg>
